# Blender3D v249 OBJ File:
# www.blender3d.org
v -0.316915 0.210335 0.386169
v 0.316915 0.210335 0.386169
v -0.375025 0.291951 1.010298
v 0.375025 0.291951 1.010298
v 0.316915 0.210336 1.814037
v -0.316915 0.210336 1.814037
v 0.360497 0.271547 1.399568
v -0.360497 0.271547 1.399568
v 0.633830 0.128720 0.446343
v 0.750049 0.128720 1.022064
v 0.258806 0.128720 0.138709
v -0.258806 0.128720 0.138709
v -0.750049 0.128720 1.022064
v -0.633830 0.128720 0.446343
v -0.360497 0.271547 0.665931
v 0.000000 0.251143 0.356081
v 0.360497 0.271547 0.665931
v 0.000000 0.373566 1.004415
v -0.000000 0.251143 1.901455
v 0.258806 0.128720 2.241106
v 0.633830 0.128720 1.639202
v -0.633830 0.128720 1.639202
v -0.258806 0.128720 2.241106
v 0.481965 0.128720 0.269087
v 0.720995 0.128720 1.363861
v -0.720995 0.128720 1.363861
v -0.481964 0.128720 0.269087
v -0.000000 0.342961 1.417421
v 0.720995 0.128720 0.690622
v 0.000000 0.128720 0.085240
v -0.720995 0.128720 0.690622
v 0.000000 0.342961 0.653586
v -0.000000 0.128720 2.421002
v 0.481965 0.128720 1.910734
v -0.481965 0.128720 1.910734
vn -0.260109 0.946318 0.191870
vn -0.240455 0.946287 0.216102
vn 0.000000 0.978240 0.207312
vn 0.000000 0.973327 0.229347
vn -0.352184 0.923032 0.154759
vn -0.334178 0.919736 0.205817
vn -0.284371 0.952086 0.112247
vn -0.380352 0.921842 0.073916
vn 0.000000 0.991638 0.129002
vn 0.260109 0.946318 0.191870
vn 0.240455 0.946287 0.216102
vn 0.334178 0.919736 0.205817
vn 0.352184 0.923032 0.154759
vn 0.284371 0.952086 0.112247
vn 0.380352 0.921842 0.073916
vn 0.302530 0.953124 -0.003601
vn 0.399091 0.916898 -0.000580
vn 0.000000 0.999969 -0.006409
vn 0.276193 0.949675 -0.147557
vn 0.000000 0.982513 -0.186132
vn 0.379406 0.921628 -0.081484
vn -0.302530 0.953124 -0.003601
vn -0.399091 0.916898 -0.000580
vn -0.276193 0.949675 -0.147557
vn -0.379406 0.921628 -0.081484
vn 0.211005 0.933927 -0.288491
vn 0.329173 0.924650 -0.191412
vn 0.000000 0.938169 -0.346141
vn 0.140355 0.919492 -0.367168
vn 0.000000 0.911222 -0.411878
vn 0.245186 0.922666 -0.297525
vn -0.211005 0.933927 -0.288491
vn -0.329173 0.924650 -0.191412
vn -0.140355 0.919492 -0.367168
vn -0.245186 0.922666 -0.297525
usemtl (null)
s 1
f 6/1/1 23/2/2 19/3/3
f 23/2/2 33/4/4 19/3/3
f 6/1/1 22/5/5 35/6/6
f 6/1/1 35/6/6 23/2/2
f 6/1/1 8/7/7 22/5/5
f 8/7/7 26/8/8 22/5/5
f 6/1/1 19/3/3 28/9/9
f 6/1/1 28/9/9 8/7/7
f 5/10/10 20/11/11 34/12/12
f 5/10/10 34/12/12 21/13/13
f 5/10/10 19/3/3 20/11/11
f 19/3/3 33/4/4 20/11/11
f 5/10/10 7/14/14 28/9/9
f 5/10/10 28/9/9 19/3/3
f 5/10/10 21/13/13 7/14/14
f 21/13/13 25/15/15 7/14/14
f 4/16/16 7/14/14 25/15/15
f 4/16/16 25/15/15 10/17/17
f 4/16/16 18/18/18 7/14/14
f 18/18/18 28/9/9 7/14/14
f 4/16/16 17/19/19 18/18/18
f 17/19/19 32/20/20 18/18/18
f 4/16/16 10/17/17 29/21/21
f 4/16/16 29/21/21 17/19/19
f 3/22/22 8/7/7 18/18/18
f 8/7/7 28/9/9 18/18/18
f 3/22/22 13/23/23 26/8/8
f 3/22/22 26/8/8 8/7/7
f 3/22/22 15/24/24 31/25/25
f 3/22/22 31/25/25 13/23/23
f 3/22/22 18/18/18 15/24/24
f 18/18/18 32/20/20 15/24/24
f 2/26/26 17/19/19 9/27/27
f 17/19/19 29/21/21 9/27/27
f 2/26/26 16/28/28 32/20/20
f 2/26/26 32/20/20 17/19/19
f 2/26/26 11/29/29 16/28/28
f 11/29/29 30/30/30 16/28/28
f 2/26/26 9/27/27 24/31/31
f 2/26/26 24/31/31 11/29/29
f 1/32/32 15/24/24 32/20/20
f 1/32/32 32/20/20 16/28/28
f 1/32/32 14/33/33 15/24/24
f 14/33/33 31/25/25 15/24/24
f 1/32/32 12/34/34 27/35/35
f 1/32/32 27/35/35 14/33/33
f 1/32/32 16/28/28 12/34/34
f 16/28/28 30/30/30 12/34/34
